PathFileType	4	(X/Y/Z)	C:/Users/opensim2020/Desktop/walking_exp_matlab/subject01_walking13_straight_02.trc	
DataRate	CameraRate	NumFrames	NumMarkers	Units	OrigDataRate	OrigDataStartFrame	OrigNumFrames	
100.00	100.00	8	42	mm	100.00	1175	172	
Frame#	Time	LFHD			RFHD			LBHD			RBHD			C7			T10			CLAV			STRN			RBAK			LSHO			LUPA			LELB			LFRM			LWRA			LWRB			LFIN			RSHO			RUPA			RELB			RFRM			RWRA			RWRB			RFIN			LASI			RASI			LPSI			RPSI			LTHI			LKNE			LTIB			LANK			LHEE			LTOE			RTHI			RKNE			RTIB			RANK			RHEE			RTOE			*39			*40			*41			
		X1	Y1	Z1	X2	Y2	Z2	X3	Y3	Z3	X4	Y4	Z4	X5	Y5	Z5	X6	Y6	Z6	X7	Y7	Z7	X8	Y8	Z8	X9	Y9	Z9	X10	Y10	Z10	X11	Y11	Z11	X12	Y12	Z12	X13	Y13	Z13	X14	Y14	Z14	X15	Y15	Z15	X16	Y16	Z16	X17	Y17	Z17	X18	Y18	Z18	X19	Y19	Z19	X20	Y20	Z20	X21	Y21	Z21	X22	Y22	Z22	X23	Y23	Z23	X24	Y24	Z24	X25	Y25	Z25	X26	Y26	Z26	X27	Y27	Z27	X28	Y28	Z28	X29	Y29	Z29	X30	Y30	Z30	X31	Y31	Z31	X32	Y32	Z32	X33	Y33	Z33	X34	Y34	Z34	X35	Y35	Z35	X36	Y36	Z36	X37	Y37	Z37	X38	Y38	Z38	X39	Y39	Z39	X40	Y40	Z40	X41	Y41	Z41	X42	Y42	Z42	

87	0.860	1517.53528	160.32500	1650.03796	1406.59619	137.62653	1653.13196	1501.19714	275.96176	1606.65442	1382.26404	254.67000	1608.35535	1454.26575	315.88147	1416.68726	1442.01392	361.79648	1123.73010	1467.80176	175.66933	1343.24890	1472.78723	136.30948	1188.56494	1364.85754	369.16660	1226.62183	1622.01648	254.23436	1373.39136	1692.75867	342.79437	1206.98499	1687.11145	395.29526	1064.11414	1709.02502	378.59702	948.34521	1692.20630	314.60999	823.65668	1708.33032	372.71841	827.22192	1724.36389	340.32129	751.91644	1311.49548	222.23224	1378.52393	1194.87964	269.15466	1186.75696	1184.37231	262.96298	1058.49438	1188.00146	168.62914	973.49036	1250.07727	47.12085	938.73962	1205.79895	66.61607	908.16077	1224.21448	-10.63897	884.18439	1554.36951	184.25687	918.43561	1336.28174	191.16457	915.64709	1512.41321	371.36667	926.65851	1369.88611	374.36566	936.57489	1634.66052	137.69753	603.30347	1611.60571	94.01578	480.01645	1624.78699	76.82461	296.78796	1581.26746	7.49561	80.52892	1522.29285	32.01070	36.15013	1594.71423	-139.40543	95.66464	1283.28369	319.94067	596.28174	1307.25928	358.51385	438.80637	1298.07898	468.52185	299.60074	1340.45447	568.72925	115.66882	1386.70166	630.00354	98.28870	1351.42993	450.16379	35.89880	1426.99963	150.74547	1687.17407	-3101.86157	1973.14673	1023.60486	-3140.55005	2012.61023	1022.13092 
88	0.870	1520.16431	147.25357	1648.78271	1409.19983	124.92690	1651.96704	1504.15894	262.90436	1605.17285	1385.21777	241.95244	1606.95837	1457.00806	302.51572	1415.25354	1444.12402	348.08249	1122.25464	1470.25317	162.21321	1341.93677	1474.72437	122.59498	1187.26709	1367.32507	355.73508	1225.31409	1624.67407	240.43166	1371.52368	1695.27588	329.28305	1205.05127	1688.45056	382.18185	1062.40967	1709.94666	366.59952	946.42346	1692.94824	304.41312	821.09399	1708.64307	362.61267	825.18304	1724.42712	331.10199	749.31274	1314.05383	208.93422	1377.48254	1197.12341	255.76924	1186.10620	1186.16772	249.72185	1057.87170	1189.69263	155.12839	973.18298	1251.93469	33.69801	938.66943	1207.38989	52.87374	908.31934	1225.98901	-24.46033	884.51550	1555.25562	169.26620	917.09454	1337.14807	177.40132	914.49011	1514.80505	356.71478	925.02307	1372.48816	360.57657	934.86554	1634.48145	121.41101	603.06445	1611.63416	79.24025	479.41763	1624.78064	63.47551	294.94653	1580.91333	-4.90644	78.48077	1522.23926	20.21179	34.25004	1593.35730	-151.93335	92.96409	1283.74939	307.38181	595.67126	1307.14490	346.76971	437.93240	1298.07422	459.95102	301.73923	1339.29102	564.96625	119.90340	1385.49219	626.80597	104.62537	1351.12158	449.59183	35.93280	1429.69019	138.08797	1685.95276	-3101.97266	1973.14014	1023.39856	-3140.77441	2012.57520	1022.07263 
89	0.880	1522.92126	134.17789	1647.57397	1411.82935	112.24975	1650.81213	1507.23242	249.78021	1603.71399	1388.24756	229.24620	1605.64246	1459.97351	289.16919	1413.79639	1446.29980	334.13165	1120.77441	1472.78320	148.64769	1340.72485	1476.77539	108.68858	1186.15100	1369.99780	342.24368	1223.94702	1627.51392	226.58940	1369.86902	1697.68115	315.50488	1203.02539	1690.07654	368.71838	1060.61206	1711.20471	354.39600	944.62805	1693.45288	293.53638	818.33099	1709.33398	351.67480	823.22632	1724.81458	321.05966	746.89795	1316.68713	195.75568	1376.58777	1199.51868	242.53435	1185.32129	1188.10828	236.56102	1057.16895	1191.47339	141.91246	972.77167	1253.72522	20.62491	938.26416	1209.00720	39.62657	908.01471	1227.50342	-37.76223	884.37305	1556.39001	154.12090	916.09583	1338.12268	163.33073	913.38666	1517.07202	341.99866	923.34918	1374.90759	346.41644	933.08124	1633.83374	104.08378	602.99084	1611.19519	63.66177	478.86365	1624.47864	51.30080	292.69815	1579.98511	-14.27367	75.59494	1521.30859	11.56266	31.97228	1591.75122	-161.60912	88.23109	1284.43872	294.02982	594.92279	1307.15552	334.06509	437.13074	1297.70093	451.39441	303.71887	1338.21790	560.77509	124.42373	1384.20972	622.86737	111.46980	1350.82178	449.11871	35.93670	1432.41333	125.38563	1684.73120	-3101.91113	1973.15369	1023.53296	-3140.74536	2012.49866	1022.06226 
90	0.890	1525.70898	121.06133	1646.35388	1414.59546	99.49693	1649.69727	1510.50745	236.61331	1602.32532	1391.40540	216.63136	1604.38599	1462.97278	275.76074	1412.25024	1448.52832	319.87405	1119.21277	1475.41541	135.03255	1339.49463	1478.90979	94.65953	1185.05554	1372.80872	328.61240	1222.48792	1630.32996	212.75078	1368.00757	1700.17163	301.52408	1200.92371	1691.97534	354.91272	1058.74219	1712.64087	341.47748	942.66376	1694.30994	281.90805	815.88501	1710.55798	340.05673	821.39575	1725.46912	310.14664	744.66608	1319.44324	182.47212	1375.80103	1201.97949	229.96400	1184.73621	1190.04102	223.93884	1056.62927	1193.09949	129.17885	972.12305	1255.30981	7.88352	937.40430	1210.38318	26.80906	907.50238	1228.98413	-50.50776	883.74493	1557.78845	138.79794	915.17230	1339.29431	148.51035	912.38757	1519.06262	327.06018	921.69263	1377.20862	331.81888	931.26971	1632.70105	86.05740	603.12567	1610.64197	47.91511	478.10663	1623.86121	40.01957	290.10428	1578.61426	-21.10578	72.37875	1520.35828	6.41408	31.27278	1590.11475	-168.65735	81.74590	1285.22229	279.62329	593.92584	1307.19763	320.34622	435.97156	1297.73633	441.41437	306.07065	1337.10901	556.01245	129.48698	1383.07422	618.13049	118.92825	1350.47681	448.46051	35.93179	1435.19800	112.65639	1683.56873	-3101.82837	1973.08557	1023.44720	-3140.73267	2012.51575	1022.09497 
91	0.900	1528.58911	107.86112	1645.10632	1417.33423	86.80006	1648.53503	1513.84753	223.43312	1600.93286	1394.68237	203.97626	1603.08704	1466.16113	262.42169	1410.64001	1450.86853	305.33344	1117.51440	1478.11768	121.32233	1338.32007	1481.17676	80.34426	1184.11841	1375.69580	314.93750	1220.89648	1633.30823	198.88829	1366.26147	1702.89636	287.30081	1198.83582	1694.18225	340.80969	1056.83496	1714.28601	328.10983	940.71454	1695.24036	269.47165	813.52814	1711.34290	327.55017	819.17468	1725.95483	298.04330	742.20532	1322.27075	169.32425	1374.79993	1204.45313	217.46968	1184.09607	1192.09375	211.25569	1056.11719	1194.76257	116.70149	971.56415	1256.84546	-4.46869	936.27802	1211.75281	14.56570	906.57550	1230.34399	-62.88939	882.79529	1559.58582	123.27319	914.46002	1340.78125	133.62482	911.11554	1520.83374	311.89365	919.98279	1379.31738	317.01248	929.53693	1630.63745	67.91212	603.12909	1610.09949	32.23406	476.52090	1622.95178	29.19745	287.10376	1576.85120	-26.19032	69.04507	1519.20557	3.46549	30.71368	1587.93018	-174.26683	73.15355	1286.09937	264.56885	592.70679	1307.15588	305.48914	434.39642	1297.47156	431.03452	308.21408	1336.07922	550.43060	134.91560	1382.22681	612.40741	126.75731	1350.16992	447.70547	35.98120	1438.02087	99.96940	1682.42322	-3101.93628	1973.11108	1023.47644	-3140.75220	2012.57214	1022.04370 
92	0.910	1531.46814	94.58408	1643.97925	1419.99402	74.12708	1647.38489	1517.34351	210.21657	1599.65686	1398.03406	191.39857	1601.80701	1469.46997	249.19972	1409.07922	1453.30469	290.61664	1115.60437	1480.95410	107.56731	1337.15588	1483.50293	65.85262	1183.28772	1378.79761	301.21033	1219.25671	1636.48987	184.97418	1364.60938	1705.74609	272.89456	1196.80481	1696.48486	326.41763	1054.84216	1716.10095	314.16159	938.65649	1696.37683	256.30704	811.27783	1712.86560	314.28781	817.19818	1726.70300	285.05737	739.80896	1325.19434	156.28017	1373.85974	1207.13257	205.29779	1183.47021	1194.09509	199.09508	1055.58472	1196.36121	104.66604	970.71399	1258.26257	-16.50281	934.76953	1213.01526	2.61019	905.31366	1231.41541	-74.54913	881.09784	1561.31616	107.90184	913.69073	1342.51270	118.33481	909.76563	1522.76367	296.84497	918.38074	1381.21533	301.86777	927.87292	1628.13269	49.94029	602.75385	1610.49646	16.98171	474.37857	1621.13318	18.65797	284.25674	1574.93652	-30.83572	67.52174	1518.13379	1.43261	33.02502	1586.54309	-179.49887	61.86170	1287.01453	248.49330	590.91650	1307.30493	289.56516	432.47961	1297.62842	418.98221	310.38510	1335.07581	543.90814	140.69885	1381.68042	605.36481	135.33403	1349.95862	446.78497	35.91238	1440.84778	87.24154	1681.24451	-3101.85742	1973.14136	1023.50739	-3140.73755	2012.53247	1021.98358 
93	0.920	1534.36072	81.14735	1643.37598	1422.59741	61.47716	1646.71252	1520.98279	196.82376	1598.73657	1401.49817	178.81578	1600.81067	1473.08130	236.12186	1407.93542	1455.81873	275.93823	1114.05151	1483.95496	93.77642	1336.43359	1485.81592	51.30699	1182.88940	1382.28381	287.31030	1217.90259	1639.78687	170.89821	1363.08777	1708.63574	258.18906	1194.70728	1698.92542	311.60941	1052.77026	1717.99719	299.61957	936.54279	1697.67688	242.29852	809.05853	1714.32556	300.29401	814.99591	1727.85571	271.25562	737.66278	1328.23877	143.26561	1373.04089	1209.88062	193.29898	1182.94910	1196.22400	187.09445	1055.19580	1197.91577	92.97584	969.76721	1259.51941	-28.03119	932.87628	1214.02173	-8.86974	903.76367	1232.44958	-85.80811	879.18103	1563.06116	92.86684	913.14703	1344.49182	102.86480	908.34912	1524.75500	281.80331	916.87354	1382.92834	286.91003	926.42603	1626.95862	32.23343	601.91864	1611.69519	1.83574	472.44452	1618.70020	7.19044	283.58591	1575.25403	-36.08485	68.08628	1518.49658	-1.74350	34.24904	1585.47278	-184.20828	54.07238	1288.21265	231.44380	588.79486	1307.23804	272.33154	430.20322	1297.93286	406.13385	312.62964	1334.32092	536.06097	146.69429	1381.32007	596.76080	144.63048	1349.59631	445.70810	35.78207	1443.59314	74.47710	1680.33887	-3101.99219	1972.98560	1023.80554	-3140.59570	2012.50745	1021.97943 
94	0.930	1537.15906	67.53220	1643.39209	1425.18323	48.72670	1646.45520	1524.72742	183.18611	1598.50806	1405.10864	166.16409	1600.43420	1477.03394	222.80487	1407.48340	1458.10352	261.44766	1113.35718	1486.71021	80.04594	1336.02576	1488.08191	36.96283	1182.87659	1386.08081	273.52405	1216.83459	1643.12378	156.79201	1361.84302	1711.58594	243.17105	1192.76160	1701.51135	296.39310	1050.75122	1720.16553	284.75531	934.55322	1699.26624	227.60919	807.07544	1715.91125	285.59976	812.89117	1729.00378	256.44067	735.55066	1331.08752	130.50247	1372.56812	1212.61926	181.31050	1182.56519	1198.51599	175.26097	1054.76086	1199.48499	81.76102	968.80505	1260.56189	-39.22942	930.78754	1215.01172	-19.61567	902.02966	1233.14624	-96.40289	876.64685	1564.93738	77.99863	912.77814	1346.88831	87.71430	907.00500	1526.57458	266.68509	916.05841	1384.33032	271.78320	925.03033	1629.30554	16.01819	602.36169	1613.04773	-13.92943	472.22986	1619.03638	-6.21586	285.48349	1576.14551	-41.04535	67.75123	1519.84912	-4.31829	36.15913	1584.33435	-188.44489	47.43265	1289.55652	213.38216	586.43750	1307.10437	253.72748	427.92557	1298.49658	391.36502	315.51868	1333.71216	526.38849	153.30029	1381.28723	585.88361	154.62633	1349.54871	444.63837	36.01011	1446.29614	61.84058	1679.96191	-3101.97437	1973.05872	1023.56055	-3140.78369	2012.55725	1022.13147 
